{"title":"Roue.Verveer.Voorwaardelijk.Vrij.DVDRIP.XVID-MisterDeee","uid":6126771,"size":735483502,"categoryP":"video","categoryS":"tv_shows","magnet":"?xt=urn:btih:e64ff9da5e24d49c936308bfe6a7c836e5d60e41&amp;dn=Roue.Verveer.Voorwaardelijk.Vrij.DVDRIP.XVID-MisterDeee&amp;tr=udp%3A%2F%2Ftracker.openbittorrent.com%3A80&amp;tr=udp%3A%2F%2Fopen.demonii.com%3A1337&amp;tr=udp%3A%2F%2Ftracker.coppersurfer.tk%3A6969&amp;tr=udp%3A%2F%2Fexodus.desync.com%3A6969","seeders":4,"leechers":0,"uploader":"MisterDeee","files":-1,"time":1295966542,"description":"Het gaat goed met RouÃƒÂ© Verveer. De Volkskrant vindt hem &quot;verfrissend geÃƒÂ«ngageerd&quot; en het NRC Handelsblad roemt zijn fantasie: &quot;Hij vuurt grappen ogenschijnlijk uit de losse pols af, alsof hij ze ter plekke verzint.&quot; Geen wonder, want RouÃƒÂ© maakt al jaren furore bij de Comedytrain met zijn mooie verhalen en scherpe improvisaties en in zijn theatershows buldert de gulle lach door de zaal.\n\nMaar als het goed met je gaat, neemt de angst om het weer kwijt te raken toe. En dat is precies het verhaal achter 'Voorwaardelijk Vrij'. Verveer prikkelt, stemt tot nadenken, en doet dat met heel veel humor.\n\nVoorwaardelijk Vrij is opgenomen in De Meervaart in Amsterdam.\n\nGeneral\nFormat                           : AVI\nFormat/Info                      : Audio Video Interleave\nFile size                        : 701 MiB\nDuration                         : 1h 38mn\nOverall bit rate                 : 998 Kbps\n\nVideo\nID                               : 0\nFormat                           : MPEG-4 Visual\nFormat profile                   : Simple@L3\nFormat settings, BVOP            : No\nFormat settings, QPel            : No\nFormat settings, GMC             : No warppoints\nFormat settings, Matrix          : Default (H.263)\nCodec ID                         : XVID\nCodec ID/Hint                    : XviD\nDuration                         : 1h 38mn\nBit rate                         : 799 Kbps\nWidth                            : 672 pixels\nHeight                           : 368 pixels\nDisplay aspect ratio             : 16:9\nFrame rate                       : 30.000 fps\nColor space                      : YUV\nChroma subsampling               : 4:2:0\nBit depth                        : 8 bits\nScan type                        : Progressive\nBits/(Pixel*Frame)               : 0.108\nStream size                      : 562 MiB (80%)\nWriting library                  : XviD 1.1.2 (UTC 2006-11-01)\n\nAudio\nID                               : 1\nFormat                           : AC-3\nFormat/Info                      : Audio Coding 3\nMode extension                   : CM (complete main)\nCodec ID                         : 2000\nDuration                         : 1h 38mn\nBit rate mode                    : Constant\nBit rate                         : 192 Kbps\nChannel(s)                       : 2 channels\nChannel positions                : Front: L R\nSampling rate                    : 48.0 KHz\nBit depth                        : 16 bits\nStream size                      : 135 MiB (19%)\nAlignment                        : Split accross interleaves\nInterleave, duration             : 500 ms (15.00 video frames)\nInterleave, preload duration     : 500 ms\n\nLeave your comment about Audio/Video/Movie.","torrent":{"xt":"urn:btih:e64ff9da5e24d49c936308bfe6a7c836e5d60e41","amp;dn":"Roue.Verveer.Voorwaardelijk.Vrij.DVDRIP.XVID-MisterDeee","amp;tr":["udp%3A%2F%2Ftracker.openbittorrent.com%3A80","udp%3A%2F%2Fopen.demonii.com%3A1337","udp%3A%2F%2Ftracker.coppersurfer.tk%3A6969","udp%3A%2F%2Fexodus.desync.com%3A6969"],"infoHash":"e64ff9da5e24d49c936308bfe6a7c836e5d60e41","infoHashBuffer":{"type":"Buffer","data":[230,79,249,218,94,36,212,156,147,99,8,191,230,167,200,54,229,214,14,65]},"announce":[],"urlList":[]}}